<?xml version="1.0" standalone="no"?><!DOCTYPE svg PUBLIC "-//W3C//DTD SVG 1.1//EN" "http://www.w3.org/Graphics/SVG/1.1/DTD/svg11.dtd"><svg t="1579456296576" class="icon" viewBox="0 0 1024 1024" version="1.1" xmlns="http://www.w3.org/2000/svg" p-id="1789" width="200" height="200" xmlns:xlink="http://www.w3.org/1999/xlink"><defs><style type="text/css"></style></defs><path d="M170.667 128h256a42.667 42.667 0 0 1 42.666 42.667v256a42.667 42.667 0 0 1-42.666 42.666h-256A42.667 42.667 0 0 1 128 426.667v-256A42.667 42.667 0 0 1 170.667 128z m42.666 85.333V384H384V213.333H213.333z m-42.666 341.334h256a42.667 42.667 0 0 1 42.666 42.666v256A42.667 42.667 0 0 1 426.667 896h-256A42.667 42.667 0 0 1 128 853.333v-256a42.667 42.667 0 0 1 42.667-42.666zM213.333 640v170.667H384V640H213.333z m384-512h256A42.667 42.667 0 0 1 896 170.667v256a42.667 42.667 0 0 1-42.667 42.666h-256a42.667 42.667 0 0 1-42.666-42.666v-256A42.667 42.667 0 0 1 597.333 128zM640 213.333V384h170.667V213.333H640z m-42.667 341.334h256A42.667 42.667 0 0 1 896 597.333v256A42.667 42.667 0 0 1 853.333 896h-256a42.667 42.667 0 0 1-42.666-42.667v-256a42.667 42.667 0 0 1 42.666-42.666zM640 640v170.667h170.667V640H640z" p-id="1790" fill="#d81e06"></path></svg>