<?xml version="1.0" standalone="no"?><!DOCTYPE svg PUBLIC "-//W3C//DTD SVG 1.1//EN" "http://www.w3.org/Graphics/SVG/1.1/DTD/svg11.dtd"><svg t="1579456319541" class="icon" viewBox="0 0 1024 1024" version="1.1" xmlns="http://www.w3.org/2000/svg" p-id="1978" xmlns:xlink="http://www.w3.org/1999/xlink" width="200" height="200"><defs><style type="text/css"></style></defs><path d="M213.333 469.333h-38.229c-14.293 0-27.819-6.101-36.779-16.597a42.41 42.41 0 0 1 7.382-62.165L482.56 137.685a49.579 49.579 0 0 1 58.88 0l336.896 252.886C889.472 398.976 896 411.69 896 425.13c0 24.405-21.077 44.202-47.104 44.202h-38.23v341.334h42.667a42.667 42.667 0 0 1 0 85.333H170.667a42.667 42.667 0 0 1 0-85.333h42.666V469.333z m85.334 0v341.334H384V469.333h-85.333z m170.666 0v341.334h85.334V469.333h-85.334z m170.667 0v341.334h85.333V469.333H640zM296.619 384h430.805L512 222.293 296.619 384z" p-id="1979"></path></svg>