<?xml version="1.0" standalone="no"?><!DOCTYPE svg PUBLIC "-//W3C//DTD SVG 1.1//EN" "http://www.w3.org/Graphics/SVG/1.1/DTD/svg11.dtd"><svg t="1579456343207" class="icon" viewBox="0 0 1024 1024" version="1.1" xmlns="http://www.w3.org/2000/svg" p-id="2136" xmlns:xlink="http://www.w3.org/1999/xlink" width="200" height="200"><defs><style type="text/css"></style></defs><path d="M512 85.333C554.667 85.333 618.667 192 618.667 192S704 170.667 725.333 170.667 768 256 768 341.333c0 149.334-114.603 256-256 256s-256-106.666-256-256c0-85.333 21.333-170.666 42.667-170.666S405.333 192 405.333 192 469.333 85.333 512 85.333zM509.312 192a444.203 444.203 0 0 0-30.805 43.904l-32.512 54.187-61.355-15.318a1527.68 1527.68 0 0 0-36.992-8.746c-3.968 22.826-6.315 49.493-6.315 75.306C341.333 440.363 414.55 512 512 512s170.667-71.637 170.667-170.667c0-25.77-2.347-52.48-6.315-75.306a1930.07 1930.07 0 0 0-36.992 8.746l-61.355 15.36-32.512-54.229A444.203 444.203 0 0 0 512 188.629l-2.688 3.328z m173.355 576a42.667 42.667 0 0 1-85.334 0 128 128 0 0 1 128-128 42.667 42.667 0 0 1 0 85.333A42.667 42.667 0 0 0 682.667 768z m-341.334 0a42.667 42.667 0 0 0-42.666-42.667 42.667 42.667 0 0 1 0-85.333 128 128 0 0 1 128 128 42.667 42.667 0 0 1-85.334 0zM512 640a42.667 42.667 0 0 1 42.667 42.667V896a42.667 42.667 0 0 1-85.334 0V682.667A42.667 42.667 0 0 1 512 640z" p-id="2137" fill="#d81e06"></path></svg>