<svg width="1024" height="1024" xmlns="http://www.w3.org/2000/svg" class="icon">
 <defs>
  <style type="text/css"/>
 </defs>
 <g>
  <title>background</title>
  <rect fill="none" id="canvas_background" height="402" width="582" y="-1" x="-1"/>
 </g>
 <g>
  <title>Layer 1</title>
  <path stroke="null" id="svg_1" fill="#d81e06" d="m693.829116,600.243888l-308.147762,0c-5.49057,0 -10.638941,-2.929946 -13.751878,-7.848389l-92.224165,-145.459938c-3.49991,-5.520854 -3.893014,-12.696888 -1.008212,-18.622428c2.882351,-5.924124 8.567939,-9.644895 14.758244,-9.644895l400.373773,0c9.222295,0 16.682064,8.075361 16.682064,18.059279l0,145.457085c0.000611,9.981784 -7.45977,18.059286 -16.682064,18.059286zm-299.367635,-36.117854l282.684959,0l0,-109.339949l-352.003638,0l69.318678,109.339949z"/>
  <path stroke="null" id="svg_2" fill="#d81e06" d="m688.343466,683.218385l-342.053567,0c-12.7566,0 -23.079825,-7.868113 -23.079825,-17.59511c0,-9.722824 10.323225,-17.596503 23.079825,-17.596503l318.930461,0l-0.180719,-53.233187c-0.023755,-9.707526 10.276553,-17.612494 23.032316,-17.627098c0,0 0.022909,0 0.045818,0c12.713336,0 23.058616,7.853509 23.080679,17.560342l0.223991,70.863064c0.023755,4.675387 -2.408783,9.15883 -6.735086,12.456567c-4.32884,3.315821 -10.212917,5.171924 -16.343893,5.171924z"/>
  <path stroke="null" id="svg_3" fill="#d81e06" d="m691.737596,452.626747c-10.721211,0 -19.39931,-8.728034 -19.39931,-19.51736l0,-95.247013c0,-9.359074 6.592901,-17.384338 15.705295,-19.156325l116.392997,-22.660964c10.588572,-2.156942 20.705769,4.85774 22.733201,15.437995c2.04597,10.598002 -4.830036,20.833431 -15.345156,22.874655l-100.688427,19.611473l0,79.140179c0.000711,10.789318 -8.674531,19.51736 -19.398599,19.51736z"/>
  <path stroke="null" id="svg_4" fill="#d81e06" d="m329.870536,755.461422c-25.412447,0 -46.085646,-24.182499 -46.085646,-53.894838c0,-29.71299 20.6732,-53.880479 46.085646,-53.880479c25.395946,0 46.070743,24.167489 46.070743,53.880479c0,29.712339 -20.675327,53.894838 -46.070743,53.894838zm0,-74.757481c-9.445492,0 -17.125281,9.351452 -17.125281,20.862642s7.679789,20.877652 17.125281,20.877652c9.431655,0 17.108781,-9.366462 17.108781,-20.877652s-7.677656,-20.862642 -17.108781,-20.862642z"/>
  <path stroke="null" id="svg_5" fill="#d81e06" d="m670.752993,760.461452c-29.527529,0 -53.565961,-25.3044 -53.565961,-56.395187c0,-31.091468 24.038432,-56.380162 53.565961,-56.380162c29.526912,0 53.565961,25.288694 53.565961,56.380162c0,31.090787 -24.039049,56.395187 -53.565961,56.395187zm0,-78.225713c-10.966448,0 -19.89421,9.785295 -19.89421,21.830525s8.927762,21.846231 19.89421,21.846231c10.967071,0 19.89545,-9.801001 19.89545,-21.846231s-8.928379,-21.830525 -19.89545,-21.830525z"/>
  <text stroke="#000" transform="matrix(42.719362028115256,0,0,1,-22020.60022878563,0) " xml:space="preserve" text-anchor="start" font-family="Helvetica, Arial, sans-serif" font-size="22" id="svg_6" y="973" x="520.5" stroke-width="0" fill="#000000"/>
  <text stroke="#000" transform="matrix(4.406500472412839,0,0,8.893643721777948,-1153.3366418740009,-6393.306934901304) " xml:space="preserve" text-anchor="start" font-family="Helvetica, Arial, sans-serif" font-size="28" id="svg_8" y="828.752015" x="334.939864" fill-opacity="null" stroke-opacity="null" stroke-width="0" fill="#000000">购物车</text>
 </g>
</svg>