<?xml version="1.0" standalone="no"?>
<!DOCTYPE svg PUBLIC "-//W3C//DTD SVG 1.1//EN" "http://www.w3.org/Graphics/SVG/1.1/DTD/svg11.dtd">
<svg t="1582189112858" class="icon" viewBox="0 0 1024 1024" version="1.1" xmlns="http://www.w3.org/2000/svg" 
p-id="7609" xmlns:xlink="http://www.w3.org/1999/xlink" width="200" height="200"><defs>
<style type="text/css"></style></defs>
<path d="M767.675612 665.244196l-514.180666 0c-9.16166 0-17.752316-4.200672-22.946618-11.252275L76.661496 445.445188c-5.840008-7.915273-6.495948-18.203594-1.682315-26.699082 4.809539-8.493441 14.296611-13.827937 24.625864-13.827937l668.070568 0c15.388479 0 27.835975 11.577686 27.835975 25.891693l0 208.54264C795.51261 653.66344 783.064091 665.244196 767.675612 665.244196zM268.145621 613.461833l471.692992 0L739.838613 456.700533 152.479275 456.700533 268.145621 613.461833z" p-id="7610" fill="#d81e06"></path><path d="M734.837716 774.46883 322.295915 774.46883c-15.385409 0-27.835975-11.577686-27.835975-25.89067 0-14.306844 12.450567-25.892717 27.835975-25.892717l384.653637 0-0.217964-78.33102c-0.028653-14.284331 12.394285-25.916253 27.77867-25.937742 0 0 0.027629 0 0.055259 0 15.33322 0 27.810393 11.556197 27.836999 25.839505l0.270153 104.272855c0.028653 6.879688-2.905166 13.476943-8.123005 18.329461C749.328755 771.737626 742.232127 774.46883 734.837716 774.46883z" p-id="7611" fill="#d81e06"></path><path d="M767.675612 452.626751c-15.384385 0-27.836999-11.577686-27.836999-25.889647L739.838613 300.392558c0-12.414751 9.460466-23.060205 22.536272-25.41074l167.017898-30.05962c15.19405-2.861164 29.711695 6.443759 32.620955 20.478404 2.935865 14.058181-6.930853 27.635407-22.019503 30.343075l-144.482649 26.01449 0 104.978936C795.51261 441.049065 783.064091 452.626751 767.675612 452.626751z" p-id="7612" fill="#d81e06"></path><path d="M318.627363 891.712091c-48.851615 0-88.592734-37.925774-88.592734-84.524069 0-46.599318 39.74112-84.501556 88.592734-84.501556 48.819892 0 88.564082 37.902238 88.564082 84.501556C407.191444 853.786317 367.446231 891.712091 318.627363 891.712091zM318.627363 774.46883c-18.157545 0-32.920784 14.666024-32.920784 32.719192s14.763239 32.742728 32.920784 32.742728c18.130939 0 32.889061-14.68956 32.889061-32.742728S336.757279 774.46883 318.627363 774.46883z" p-id="7613" fill="#d81e06"></path><path d="M710.753181 891.712091c-48.820915 0-88.566128-37.925774-88.566128-84.524069 0-46.599318 39.745213-84.501556 88.566128-84.501556 48.819892 0 88.566128 37.902238 88.566128 84.501556C799.31931 853.786317 759.573073 891.712091 710.753181 891.712091zM710.753181 774.46883c-18.131963 0-32.893154 14.666024-32.893154 32.719192s14.761192 32.742728 32.893154 32.742728c18.132986 0 32.895201-14.68956 32.895201-32.742728S728.886167 774.46883 710.753181 774.46883z" 
p-id="7614" fill="#d81e06"></path></svg>